<svg version="1.2" xmlns="http://www.w3.org/2000/svg" viewBox="0 0 810 810" width="810" height="810">
	<title>DolD-svg</title>
	<style>
		.s0 { fill: #ffffff;stroke: #000000;stroke-miterlimit:100;stroke-width: 12 } 
	</style>
	<path class="s0" d="m380.2 10c11.1-0.3 21.5 2 32.5 2.8 52.5 3.9 76.7 7.8 126 28.6 97.6 41.2 157.8 92.6 197.8 191.3 37.9 93.6 24.9 185.5-13.9 276.7-23.8 55.9-60.8 109.7-110 146.3-18.6 13.8-39 25.2-59.3 36.3q-46.7 25.9-96.3 45.8c-33.7 13.6-66.4 22.3-101.1 32.1-17.6 4.9-34.6 11.3-52.2 16-24.9 6.6-50.3 9.9-75.9 12.7-6.7 0.7-18.3 3.4-24.5 0.8 1.1-0.5 2-1.1 2.9-1.8 5.9-4.9 11.4-14.8 15.7-21.4 31.2-48.1 46.1-105.9 51.2-162.7 6.5-71.6-1.2-144.8-2.5-216.5l-2.2-103.5c-0.2-12.8 1.9-26.5 0.5-39.1-0.7-6.5-5.4-12.5-7.1-18.8-2.6-9.7-2.3-20.2-5.9-29.7-5.5-14.5-19.7-19-28.9-30.2-2.8-3.4-4.4-6.3-3.9-10.8 1-2.5 2.3-4.1 4.6-5.6 3.5-2.5 8.4-4 12.8-3.4 10 1.6 21.6 8.5 31.3 12.1q23.6 8.6 48.2 13.3c17.7 3.4 34.9 4.2 52.7 2.7 12.8-1.1 29.2-4.9 41.6-2.6 6.2 1.2 11.9 5.4 17 9-9.2 19.7-26.7 34.5-33.5 55.8-5.6 17.9-14.2 65.5-10.6 83.3 1.7 8 8.9 14.5 9 23.1 0.7 29.6-5.6 59.2-4.7 89 0.4 13.8 2.2 27.6 3.3 41.4 0.9 12.8 1.2 25.6 2.1 38.4 2.4 34.9 5.1 69.3 2.6 104.4q1.3 0.1 2.7 0.2c42.3 2.5 87.2-10.9 119.1-39.2 39.1-34.7 71.2-89 72.5-142.1 0.4-19.2-2.9-43.1 3-61.4 7.1-22 33.6-33.5 35.3-66 1.8-32.9-11.6-79.8-28.1-108.3-7-12.2-15.7-22.8-25-33.2-58.9-66.1-113.7-103.1-204.1-108.3-47.2-2.7-108.6-4.4-153.4 11.1-21.3 7.4-41.6 18.3-61.7 28.6-47.6 24.4-70.3 40-109.5 75 3-11.4 6.6-20 13.7-29.6 16.4-22.1 36.1-45.2 59.9-59.6 14.8-8.9 30.7-16.2 45.4-25.3 11.4-7 21.3-16.5 32.3-24.1 23.1-15.8 55.8-25.1 83.3-29.6 18.8-3.2 38.2-0.3 57.1-0.3 13 0.1 25.5-1.8 38.2-3.7z"/>
</svg>